<svg xmlns="http://www.w3.org/2000/svg" viewBox="0 0 1200 675" role="img" aria-label="Cuidar zapatillas">
  <rect width="1200" height="675" fill="#c4d94c"/>
  <g fill="#0b1228" opacity="0.95">
    <rect x="0" y="0" width="600" height="675"/>
  </g>
  <g fill="#c4d94c" opacity="1">
    <circle cx="80" cy="80" r="4"/>
    <circle cx="180" cy="80" r="4"/>
    <circle cx="280" cy="80" r="4"/>
    <circle cx="380" cy="80" r="4"/>
    <circle cx="480" cy="80" r="4"/>
    <circle cx="80" cy="180" r="4"/>
    <circle cx="180" cy="180" r="4"/>
    <circle cx="280" cy="180" r="4"/>
    <circle cx="380" cy="180" r="4"/>
    <circle cx="480" cy="180" r="4"/>
    <circle cx="80" cy="280" r="4"/>
    <circle cx="180" cy="280" r="4"/>
    <circle cx="280" cy="280" r="4"/>
    <circle cx="380" cy="280" r="4"/>
    <circle cx="480" cy="280" r="4"/>
  </g>
  <g fill="#e13c3c">
    <circle cx="900" cy="338" r="180"/>
    <circle cx="900" cy="338" r="120" fill="#0b1228"/>
    <circle cx="900" cy="338" r="60" fill="#c4d94c"/>
  </g>
  <text x="60" y="500" font-family="ui-sans-serif,system-ui" font-size="70" font-weight="900" fill="#c4d94c" letter-spacing="-2">CUIDAR</text>
  <text x="60" y="580" font-family="ui-sans-serif,system-ui" font-size="50" font-weight="700" fill="#ffffff" letter-spacing="-1">tus zapatillas</text>
</svg>
